<svg width="17" height="16" viewBox="0 0 17 16" fill="none" xmlns="http://www.w3.org/2000/svg">
<path d="M16.6187 7.37891C16.6187 11.2449 13.0367 14.3789 8.61865 14.3789C7.8263 14.38 7.03724 14.2771 6.27165 14.0729C5.68765 14.3689 4.34665 14.9369 2.09065 15.3069C1.89065 15.3389 1.73865 15.1309 1.81765 14.9449C2.17165 14.1089 2.49165 12.9949 2.58765 11.9789C1.36265 10.7489 0.618652 9.13891 0.618652 7.37891C0.618652 3.51291 4.20065 0.378906 8.61865 0.378906C13.0367 0.378906 16.6187 3.51291 16.6187 7.37891ZM5.61865 7.37891C5.61865 7.11369 5.5133 6.85934 5.32576 6.6718C5.13822 6.48426 4.88387 6.37891 4.61865 6.37891C4.35344 6.37891 4.09908 6.48426 3.91155 6.6718C3.72401 6.85934 3.61865 7.11369 3.61865 7.37891C3.61865 7.64412 3.72401 7.89848 3.91155 8.08601C4.09908 8.27355 4.35344 8.37891 4.61865 8.37891C4.88387 8.37891 5.13822 8.27355 5.32576 8.08601C5.5133 7.89848 5.61865 7.64412 5.61865 7.37891ZM9.61865 7.37891C9.61865 7.11369 9.5133 6.85934 9.32576 6.6718C9.13822 6.48426 8.88387 6.37891 8.61865 6.37891C8.35344 6.37891 8.09908 6.48426 7.91155 6.6718C7.72401 6.85934 7.61865 7.11369 7.61865 7.37891C7.61865 7.64412 7.72401 7.89848 7.91155 8.08601C8.09908 8.27355 8.35344 8.37891 8.61865 8.37891C8.88387 8.37891 9.13822 8.27355 9.32576 8.08601C9.5133 7.89848 9.61865 7.64412 9.61865 7.37891ZM12.6187 8.37891C12.8839 8.37891 13.1382 8.27355 13.3258 8.08601C13.5133 7.89848 13.6187 7.64412 13.6187 7.37891C13.6187 7.11369 13.5133 6.85934 13.3258 6.6718C13.1382 6.48426 12.8839 6.37891 12.6187 6.37891C12.3534 6.37891 12.0991 6.48426 11.9115 6.6718C11.724 6.85934 11.6187 7.11369 11.6187 7.37891C11.6187 7.64412 11.724 7.89848 11.9115 8.08601C12.0991 8.27355 12.3534 8.37891 12.6187 8.37891Z" fill="white"/>
</svg>
