<svg width="19" height="21" viewBox="0 0 19 21" fill="none" xmlns="http://www.w3.org/2000/svg">
<path fill-rule="evenodd" clip-rule="evenodd" d="M0.508545 18.8998C0.508545 18.5815 0.643939 18.2763 0.884942 18.0513C1.12595 17.8262 1.45282 17.6998 1.79365 17.6998H17.2149C17.5557 17.6998 17.8826 17.8262 18.1236 18.0513C18.3646 18.2763 18.5 18.5815 18.5 18.8998C18.5 19.218 18.3646 19.5233 18.1236 19.7483C17.8826 19.9734 17.5557 20.0998 17.2149 20.0998H1.79365C1.45282 20.0998 1.12595 19.9734 0.884942 19.7483C0.643939 19.5233 0.508545 19.218 0.508545 18.8998ZM4.74038 9.65138C4.98137 9.42642 5.30818 9.30004 5.64895 9.30004C5.98971 9.30004 6.31652 9.42642 6.55751 9.65138L8.21915 11.203V2.09978C8.21915 1.78152 8.35454 1.4763 8.59555 1.25125C8.83655 1.02621 9.16342 0.89978 9.50425 0.89978C9.84508 0.89978 10.1719 1.02621 10.413 1.25125C10.654 1.4763 10.7893 1.78152 10.7893 2.09978V11.203L12.451 9.65138C12.5695 9.53677 12.7113 9.44535 12.8681 9.38246C13.0249 9.31957 13.1935 9.28646 13.3642 9.28508C13.5348 9.2837 13.704 9.31406 13.862 9.3744C14.0199 9.43473 14.1634 9.52384 14.284 9.63651C14.4047 9.74918 14.5001 9.88316 14.5647 10.0306C14.6294 10.1781 14.6619 10.3361 14.6604 10.4955C14.6589 10.6548 14.6235 10.8123 14.5561 10.9587C14.4888 11.1051 14.3909 11.2375 14.2681 11.3482L10.4128 14.9482C10.1718 15.1731 9.84501 15.2995 9.50425 15.2995C9.16349 15.2995 8.83667 15.1731 8.59568 14.9482L4.74038 11.3482C4.49946 11.1231 4.36412 10.818 4.36412 10.4998C4.36412 10.1816 4.49946 9.87641 4.74038 9.65138Z" fill="white"/>
</svg>
