<svg width="23" height="28" viewBox="0 0 23 28" fill="none" xmlns="http://www.w3.org/2000/svg">
<path fill-rule="evenodd" clip-rule="evenodd" d="M0 5C0 2.23858 2.23858 0 5 0H15.4289C16.755 0 18.0268 0.526784 18.9645 1.46447L21.0355 3.53554C21.9732 4.47322 22.5 5.74499 22.5 7.07107V22.5C22.5 25.2614 20.2614 27.5 17.5 27.5H5C2.23858 27.5 0 25.2614 0 22.5V5ZM20 8.75V22.5C20 23.8807 18.8807 25 17.5 25H5C3.61929 25 2.5 23.8807 2.5 22.5V5C2.5 3.61929 3.61929 2.5 5 2.5H13.75V5C13.75 7.07107 15.4289 8.75 17.5 8.75H20ZM19.8613 6.25C19.7386 5.897 19.5371 5.57259 19.2678 5.3033L17.1967 3.23223C16.9274 2.96294 16.603 2.76143 16.25 2.63868V5C16.25 5.69036 16.8096 6.25 17.5 6.25H19.8613Z" fill="#12131A"/>
<path d="M7.50024 13.75C6.80989 13.75 6.25024 14.3096 6.25024 15C6.25024 15.6904 6.80989 16.25 7.50024 16.25H15.0002C15.6906 16.25 16.2502 15.6904 16.2502 15C16.2502 14.3096 15.6906 13.75 15.0002 13.75H7.50024Z" fill="#12131A"/>
<path d="M7.50024 18.75C6.80989 18.75 6.25024 19.3096 6.25024 20C6.25024 20.6904 6.80989 21.25 7.50024 21.25H11.2502C11.9406 21.25 12.5002 20.6904 12.5002 20C12.5002 19.3096 11.9406 18.75 11.2502 18.75H7.50024Z" fill="#12131A"/>
</svg>
