<svg width="23" height="28" viewBox="0 0 23 28" fill="none" xmlns="http://www.w3.org/2000/svg">
<path fill-rule="evenodd" clip-rule="evenodd" d="M0 5C0 2.23858 2.23858 0 5 0H15.4289C16.755 0 18.0268 0.526784 18.9645 1.46447L21.0355 3.53554C21.9732 4.47322 22.5 5.74499 22.5 7.07107V22.5C22.5 25.2614 20.2614 27.5 17.5 27.5H5C2.23858 27.5 0 25.2614 0 22.5V5ZM20 8.75V22.5C20 23.8807 18.8807 25 17.5 25H5C3.61929 25 2.5 23.8807 2.5 22.5V5C2.5 3.61929 3.61929 2.5 5 2.5H13.75V5C13.75 7.07107 15.4289 8.75 17.5 8.75H20ZM19.8613 6.25C19.7386 5.897 19.5371 5.57259 19.2678 5.3033L17.1967 3.23223C16.9274 2.96294 16.603 2.76143 16.25 2.63868V5C16.25 5.69036 16.8096 6.25 17.5 6.25H19.8613Z" fill="#12131A"/>
<path d="M6.25024 3.125C6.25024 2.77982 6.53007 2.5 6.87524 2.5H8.12524C8.47042 2.5 8.75024 2.77982 8.75024 3.125V4.375C8.75024 4.72018 8.47042 5 8.12524 5H6.87524C6.53007 5 6.25024 4.72018 6.25024 4.375V3.125Z" fill="#12131A"/>
<path d="M6.25024 8.125C6.25024 7.77982 6.53007 7.5 6.87524 7.5H8.12524C8.47042 7.5 8.75024 7.77982 8.75024 8.125V9.375C8.75024 9.72018 8.47042 10 8.12524 10H6.87524C6.53007 10 6.25024 9.72018 6.25024 9.375V8.125Z" fill="#12131A"/>
<path d="M8.75024 10.625C8.75024 10.2798 9.03007 10 9.37524 10H10.6252C10.9704 10 11.2502 10.2798 11.2502 10.625V11.875C11.2502 12.2202 10.9704 12.5 10.6252 12.5H9.37524C9.03007 12.5 8.75024 12.2202 8.75024 11.875V10.625Z" fill="#12131A"/>
<path d="M6.87524 12.5C6.53007 12.5 6.25024 12.7798 6.25024 13.125V14.375C6.25024 14.7202 6.53007 15 6.87524 15H8.12524C8.47042 15 8.75024 14.7202 8.75024 14.375V13.125C8.75024 12.7798 8.47042 12.5 8.12524 12.5H6.87524Z" fill="#12131A"/>
<path d="M8.75024 15.625C8.75024 15.2798 9.03007 15 9.37524 15H10.6252C10.9704 15 11.2502 15.2798 11.2502 15.625V16.875C11.2502 17.2202 10.9704 17.5 10.6252 17.5H9.37524C9.03007 17.5 8.75024 17.2202 8.75024 16.875V15.625Z" fill="#12131A"/>
<path d="M6.87524 17.5C6.53007 17.5 6.25024 17.7798 6.25024 18.125V19.375C6.25024 19.7202 6.53007 20 6.87524 20H8.12524C8.47042 20 8.75024 19.7202 8.75024 19.375V18.125C8.75024 17.7798 8.47042 17.5 8.12524 17.5H6.87524Z" fill="#12131A"/>
<path d="M8.75024 20.625C8.75024 20.2798 9.03007 20 9.37524 20H10.6252C10.9704 20 11.2502 20.2798 11.2502 20.625V21.875C11.2502 22.2202 10.9704 22.5 10.6252 22.5H9.37524C9.03007 22.5 8.75024 22.2202 8.75024 21.875V20.625Z" fill="#12131A"/>
<path d="M6.87524 22.5C6.53007 22.5 6.25024 22.7798 6.25024 23.125V24.375C6.25024 24.7202 6.53007 25 6.87524 25H8.12524C8.47042 25 8.75024 24.7202 8.75024 24.375V23.125C8.75024 22.7798 8.47042 22.5 8.12524 22.5H6.87524Z" fill="#12131A"/>
<path d="M9.37524 5C9.03007 5 8.75024 5.27982 8.75024 5.625V6.875C8.75024 7.22018 9.03007 7.5 9.37524 7.5H10.6252C10.9704 7.5 11.2502 7.22018 11.2502 6.875V5.625C11.2502 5.27982 10.9704 5 10.6252 5H9.37524Z" fill="#12131A"/>
</svg>
