<svg width="16" height="16" viewBox="0 0 16 16" fill="none" xmlns="http://www.w3.org/2000/svg">
<path fill-rule="evenodd" clip-rule="evenodd" d="M7.24712 3.4667C5.23485 3.4667 3.60359 5.23104 3.60359 7.40747C3.60359 9.58389 5.23485 11.3482 7.24712 11.3482C9.25938 11.3482 10.8906 9.58389 10.8906 7.40747C10.8906 5.23104 9.25938 3.4667 7.24712 3.4667ZM2.12427 7.40747C2.12427 4.34738 4.41785 1.8667 7.24712 1.8667C10.0764 1.8667 12.37 4.34738 12.37 7.40747C12.37 10.4675 10.0764 12.9482 7.24712 12.9482C4.41785 12.9482 2.12427 10.4675 2.12427 7.40747Z" fill="#09204F"/>
<path fill-rule="evenodd" clip-rule="evenodd" d="M9.81979 10.1899C10.1086 9.87746 10.577 9.87746 10.8658 10.1899L13.2492 12.7677C13.538 13.0801 13.538 13.5866 13.2492 13.899C12.9603 14.2115 12.492 14.2115 12.2031 13.899L9.81979 11.3213C9.53094 11.0088 9.53094 10.5023 9.81979 10.1899Z" fill="#09204F"/>
</svg>
