<svg width="16" height="17" viewBox="0 0 16 17" fill="none" xmlns="http://www.w3.org/2000/svg">
<path d="M9.99996 2.50049H3.99996C3.44663 2.50049 2.97329 2.83382 2.77329 3.31382L0.759959 8.01382C0.699959 8.16715 0.666626 8.32715 0.666626 8.50049V9.77382L0.673293 9.78049L0.666626 9.83382C0.666626 10.5672 1.26663 11.1672 1.99996 11.1672H6.20663L5.57329 14.2138L5.55329 14.4272C5.55329 14.7005 5.66663 14.9538 5.84663 15.1338L6.55329 15.8338L10.9466 11.4405C11.1866 11.2005 11.3333 10.8672 11.3333 10.5005V3.83382C11.3333 3.10049 10.7333 2.50049 9.99996 2.50049ZM12.6666 2.50049V10.5005H15.3333V2.50049H12.6666Z" fill="black"/>
</svg>
