<svg width="16" height="14" viewBox="0 0 16 14" fill="none" xmlns="http://www.w3.org/2000/svg">
<path d="M0.666626 13.5004H3.33329V5.50045H0.666626V13.5004ZM15.3333 6.16711C15.3333 5.43378 14.7333 4.83378 14 4.83378H9.79329L10.4266 1.78711L10.4466 1.57378C10.4466 1.30045 10.3333 1.04711 10.1533 0.867114L9.44663 0.167114L5.05996 4.56045C4.81329 4.80045 4.66663 5.13378 4.66663 5.50045V12.1671C4.66663 12.9004 5.26663 13.5004 5.99996 13.5004H12C12.5533 13.5004 13.0266 13.1671 13.2266 12.6871L15.24 7.98711C15.3 7.83378 15.3333 7.67378 15.3333 7.50045V6.22711L15.3266 6.22045L15.3333 6.16711Z" fill="black"/>
</svg>
